<svg data-v-423bf9ae="" xmlns="http://www.w3.org/2000/svg" viewBox="0 0 554 90" class="iconLeft"><!----><!----><!----><g data-v-423bf9ae="" id="fa4a79a0-c240-427a-9121-5b0b704e5fb6" fill="black" transform="matrix(5.934717742604922,0,0,5.934717742604922,105.1928766492953,-11.172104339321642)"><path d="M4.75 14.52C6.37 14.52 7.56 13.66 8.18 12.29L7.24 11.70C6.85 12.77 5.99 13.47 4.75 13.47C3.07 13.47 2.07 12.25 2.07 10.25L2.07 8.79C2.07 6.79 3.07 5.46 4.75 5.46C5.95 5.46 6.76 6.12 7.15 7.13L8.11 6.55C7.49 5.19 6.37 4.41 4.75 4.41C2.28 4.41 0.81 6.26 0.81 9.52C0.81 12.78 2.28 14.52 4.75 14.52ZM11.00 14.35L11.00 9.45C11.00 8.76 11.73 8.25 12.94 8.25L13.59 8.25L13.59 7.13L13.16 7.13C11.98 7.13 11.33 7.77 11.07 8.46L11.00 8.46L11.00 7.13L9.88 7.13L9.88 14.35ZM17.67 14.52C19.03 14.52 20.06 13.85 20.52 12.87L19.73 12.29C19.35 13.09 18.65 13.54 17.74 13.54C16.39 13.54 15.60 12.60 15.60 11.35L15.60 11.02L20.79 11.02L20.79 10.49C20.79 8.44 19.60 6.96 17.67 6.96C15.71 6.96 14.42 8.44 14.42 10.74C14.42 13.03 15.71 14.52 17.67 14.52ZM17.67 7.90C18.82 7.90 19.59 8.75 19.59 10.02L19.59 10.18L15.60 10.18L15.60 10.08C15.60 8.82 16.45 7.90 17.67 7.90ZM28.52 14.35L28.52 13.37L27.69 13.37L27.69 9.39C27.69 7.87 26.66 6.96 24.92 6.96C23.62 6.96 22.75 7.60 22.36 8.37L23.03 9.00C23.42 8.34 24.00 7.92 24.86 7.92C26.01 7.92 26.57 8.48 26.57 9.51L26.57 10.22L25.14 10.22C23.04 10.22 22.06 10.98 22.06 12.33C22.06 13.68 22.96 14.52 24.49 14.52C25.49 14.52 26.26 14.06 26.57 13.17L26.64 13.17C26.73 13.85 27.06 14.35 27.89 14.35ZM24.67 13.57C23.80 13.57 23.24 13.16 23.24 12.45L23.24 12.15C23.24 11.45 23.81 11.06 25.09 11.06L26.57 11.06L26.57 12.25C26.57 12.99 25.77 13.57 24.67 13.57ZM33.11 14.35L33.11 13.37L31.64 13.37L31.64 8.11L33.22 8.11L33.22 7.13L31.64 7.13L31.64 5.12L30.63 5.12L30.63 6.47C30.63 6.96 30.48 7.13 30.00 7.13L29.33 7.13L29.33 8.11L30.52 8.11L30.52 13.16C30.52 13.86 30.94 14.35 31.71 14.35ZM37.70 14.52C39.63 14.52 40.96 13.03 40.96 10.74C40.96 8.44 39.63 6.96 37.70 6.96C35.77 6.96 34.44 8.44 34.44 10.74C34.44 13.03 35.77 14.52 37.70 14.52ZM37.70 13.52C36.50 13.52 35.64 12.78 35.64 11.26L35.64 10.22C35.64 8.69 36.50 7.95 37.70 7.95C38.91 7.95 39.76 8.69 39.76 10.22L39.76 11.26C39.76 12.78 38.91 13.52 37.70 13.52ZM43.93 14.35L43.93 9.45C43.93 8.76 44.66 8.25 45.86 8.25L46.52 8.25L46.52 7.13L46.09 7.13C44.91 7.13 44.25 7.77 44.00 8.46L43.93 8.46L43.93 7.13L42.81 7.13L42.81 14.35ZM51.65 14.52C53.27 14.52 54.46 13.66 55.08 12.29L54.14 11.70C53.75 12.77 52.89 13.47 51.65 13.47C49.97 13.47 48.97 12.25 48.97 10.25L48.97 8.79C48.97 6.79 49.97 5.46 51.65 5.46C52.85 5.46 53.66 6.12 54.05 7.13L55.01 6.55C54.39 5.19 53.27 4.41 51.65 4.41C49.18 4.41 47.71 6.26 47.71 9.52C47.71 12.78 49.18 14.52 51.65 14.52ZM59.51 14.52C61.45 14.52 62.78 13.03 62.78 10.74C62.78 8.44 61.45 6.96 59.51 6.96C57.58 6.96 56.25 8.44 56.25 10.74C56.25 13.03 57.58 14.52 59.51 14.52ZM59.51 13.52C58.31 13.52 57.46 12.78 57.46 11.26L57.46 10.22C57.46 8.69 58.31 7.95 59.51 7.95C60.72 7.95 61.57 8.69 61.57 10.22L61.57 11.26C61.57 12.78 60.72 13.52 59.51 13.52ZM65.74 14.35L65.74 9.45C65.74 8.76 66.47 8.25 67.68 8.25L68.33 8.25L68.33 7.13L67.90 7.13C66.72 7.13 66.07 7.77 65.81 8.46L65.74 8.46L65.74 7.13L64.62 7.13L64.62 14.35ZM72.41 14.52C73.77 14.52 74.80 13.85 75.26 12.87L74.47 12.29C74.09 13.09 73.39 13.54 72.48 13.54C71.13 13.54 70.34 12.60 70.34 11.35L70.34 11.02L75.53 11.02L75.53 10.49C75.53 8.44 74.34 6.96 72.41 6.96C70.45 6.96 69.16 8.44 69.16 10.74C69.16 13.03 70.45 14.52 72.41 14.52ZM72.41 7.90C73.56 7.90 74.33 8.75 74.33 10.02L74.33 10.18L70.34 10.18L70.34 10.08C70.34 8.82 71.19 7.90 72.41 7.90Z"></path></g><!----><g data-v-423bf9ae="" id="4979c2d2-2c25-45d5-b093-919580ef6a75" transform="matrix(2.8125,0,0,2.8125,0,0)" stroke="none" fill="black"><path d="M9.382 8.675h13.943v13.943L32 31.293V0H.707zM22.618 23.325H8.675V9.382L0 .707V32h31.293z"></path></g><!----></svg>