<svg width="554" height="90" viewBox="0 0 554 90" fill="none" xmlns="http://www.w3.org/2000/svg">
<path d="M133.383 75C142.997 75 150.059 69.8961 153.739 61.7656L148.16 58.2641C145.846 64.6142 140.742 68.7685 133.383 68.7685C123.412 68.7685 117.478 61.5282 117.478 49.6588V40.9941C117.478 29.1246 123.412 21.2315 133.383 21.2315C140.504 21.2315 145.312 25.1484 147.626 31.1424L153.323 27.7003C149.644 19.6291 142.997 15 133.383 15C118.724 15 110 25.9792 110 45.3264C110 64.6736 118.724 75 133.383 75ZM170.475 73.9911V44.911C170.475 40.816 174.807 37.7893 181.988 37.7893H185.846V31.1424H183.294C176.291 31.1424 172.433 34.9407 170.89 39.0356H170.475V31.1424H163.828V73.9911H170.475ZM210.059 75C218.131 75 224.243 71.0237 226.973 65.2077L222.285 61.7656C220.03 66.5133 215.875 69.184 210.475 69.184C202.463 69.184 197.774 63.6053 197.774 56.1869V54.2285H228.576V51.0831C228.576 38.9169 221.513 30.1335 210.059 30.1335C198.427 30.1335 190.772 38.9169 190.772 52.5668C190.772 66.1573 198.427 75 210.059 75ZM210.059 35.7122C216.884 35.7122 221.454 40.7567 221.454 48.2938V49.2433H197.774V48.6498C197.774 41.1721 202.819 35.7122 210.059 35.7122ZM274.451 73.9911V68.1751H269.525V44.5549C269.525 35.5341 263.412 30.1335 253.086 30.1335C245.371 30.1335 240.208 33.9317 237.893 38.5015L241.869 42.2404C244.184 38.3234 247.626 35.8309 252.73 35.8309C259.555 35.8309 262.878 39.1543 262.878 45.2671V49.4807H254.392C241.929 49.4807 236.113 53.9911 236.113 62.003C236.113 70.0148 241.454 75 250.534 75C256.469 75 261.039 72.27 262.878 66.9881H263.294C263.828 71.0237 265.786 73.9911 270.712 73.9911H274.451ZM251.602 69.362C246.439 69.362 243.116 66.9288 243.116 62.7151V60.9347C243.116 56.7804 246.499 54.4659 254.095 54.4659H262.878V61.5282C262.878 65.9199 258.131 69.362 251.602 69.362ZM301.691 73.9911V68.1751H292.967V36.9585H302.344V31.1424H292.967V19.2136H286.973V27.2255C286.973 30.1335 286.083 31.1424 283.234 31.1424H279.258V36.9585H286.32V66.9288C286.32 71.0831 288.813 73.9911 293.383 73.9911H301.691ZM328.932 75C340.386 75 348.279 66.1573 348.279 52.5668C348.279 38.9169 340.386 30.1335 328.932 30.1335C317.478 30.1335 309.585 38.9169 309.585 52.5668C309.585 66.1573 317.478 75 328.932 75ZM328.932 69.0653C321.81 69.0653 316.706 64.6736 316.706 55.6528V49.4807C316.706 40.4006 321.81 36.0089 328.932 36.0089C336.113 36.0089 341.157 40.4006 341.157 49.4807V55.6528C341.157 64.6736 336.113 69.0653 328.932 69.0653ZM365.905 73.9911V44.911C365.905 40.816 370.237 37.7893 377.359 37.7893H381.276V31.1424H378.724C371.721 31.1424 367.804 34.9407 366.32 39.0356H365.905V31.1424H359.258V73.9911H365.905ZM411.721 75C421.335 75 428.398 69.8961 432.077 61.7656L426.498 58.2641C424.184 64.6142 419.08 68.7685 411.721 68.7685C401.751 68.7685 395.816 61.5282 395.816 49.6588V40.9941C395.816 29.1246 401.751 21.2315 411.721 21.2315C418.843 21.2315 423.65 25.1484 425.964 31.1424L431.662 27.7003C427.982 19.6291 421.335 15 411.721 15C397.062 15 388.338 25.9792 388.338 45.3264C388.338 64.6736 397.062 75 411.721 75ZM458.368 75C469.881 75 477.774 66.1573 477.774 52.5668C477.774 38.9169 469.881 30.1335 458.368 30.1335C446.914 30.1335 439.021 38.9169 439.021 52.5668C439.021 66.1573 446.914 75 458.368 75ZM458.368 69.0653C451.246 69.0653 446.202 64.6736 446.202 55.6528V49.4807C446.202 40.4006 451.246 36.0089 458.368 36.0089C465.549 36.0089 470.593 40.4006 470.593 49.4807V55.6528C470.593 64.6736 465.549 69.0653 458.368 69.0653ZM495.341 73.9911V44.911C495.341 40.816 499.674 37.7893 506.855 37.7893H510.712V31.1424H508.16C501.157 31.1424 497.3 34.9407 495.757 39.0356H495.341V31.1424H488.694V73.9911H495.341ZM534.926 75C542.997 75 549.11 71.0237 551.84 65.2077L547.151 61.7656C544.896 66.5133 540.742 69.184 535.341 69.184C527.329 69.184 522.641 63.6053 522.641 56.1869V54.2285H553.442V51.0831C553.442 38.9169 546.38 30.1335 534.926 30.1335C523.294 30.1335 515.638 38.9169 515.638 52.5668C515.638 66.1573 523.294 75 534.926 75ZM534.926 35.7122C541.751 35.7122 546.32 40.7567 546.32 48.2938V49.2433H522.641V48.6498C522.641 41.1721 527.685 35.7122 534.926 35.7122Z" fill="#30ABFF"/>
<path d="M26.3869 24.3984H65.6016V63.6131L90 88.0116V0H1.98844L26.3869 24.3984ZM63.6131 65.6016H24.3984V26.3869L0 1.98844V90H88.0116L63.6131 65.6016Z" fill="#30ABFF"/>
</svg>
