<svg width="653" height="101" viewBox="0 0 653 101" fill="none" xmlns="http://www.w3.org/2000/svg">
<path d="M26.3869 30.3984H65.6016V69.6131L90 94.0116V6H1.98844L26.3869 30.3984ZM63.6131 71.6016H24.3984V32.3869L0 7.98844V96H88.0116L63.6131 71.6016Z" fill="#30ABFF"/>
<path d="M169.734 61.2656C169.203 68.6094 166.484 74.3906 161.578 78.6094C156.703 82.8281 150.266 84.9375 142.266 84.9375C133.516 84.9375 126.625 82 121.594 76.125C116.594 70.2188 114.094 62.125 114.094 51.8438V47.6719C114.094 41.1094 115.25 35.3281 117.562 30.3281C119.875 25.3281 123.172 21.5 127.453 18.8438C131.766 16.1563 136.766 14.8125 142.453 14.8125C150.328 14.8125 156.672 16.9219 161.484 21.1406C166.297 25.3594 169.078 31.2812 169.828 38.9062H155.766C155.422 34.5 154.188 31.3125 152.062 29.3438C149.969 27.3437 146.766 26.3438 142.453 26.3438C137.766 26.3438 134.25 28.0312 131.906 31.4062C129.594 34.75 128.406 39.9531 128.344 47.0156V52.1719C128.344 59.5469 129.453 64.9375 131.672 68.3438C133.922 71.75 137.453 73.4531 142.266 73.4531C146.609 73.4531 149.844 72.4688 151.969 70.5C154.125 68.5 155.359 65.4219 155.672 61.2656H169.734ZM206.578 45.9844C204.734 45.7344 203.109 45.6094 201.703 45.6094C196.578 45.6094 193.219 47.3438 191.625 50.8125V84H178.078V33.2812H190.875L191.25 39.3281C193.969 34.6719 197.734 32.3438 202.547 32.3438C204.047 32.3438 205.453 32.5469 206.766 32.9531L206.578 45.9844ZM235.547 84.9375C228.109 84.9375 222.047 82.6562 217.359 78.0938C212.703 73.5312 210.375 67.4531 210.375 59.8594V58.5469C210.375 53.4531 211.359 48.9062 213.328 44.9062C215.297 40.875 218.078 37.7812 221.672 35.625C225.297 33.4375 229.422 32.3438 234.047 32.3438C240.984 32.3438 246.438 34.5312 250.406 38.9062C254.406 43.2812 256.406 49.4844 256.406 57.5156V63.0469H224.109C224.547 66.3594 225.859 69.0156 228.047 71.0156C230.266 73.0156 233.062 74.0156 236.438 74.0156C241.656 74.0156 245.734 72.125 248.672 68.3438L255.328 75.7969C253.297 78.6719 250.547 80.9219 247.078 82.5469C243.609 84.1406 239.766 84.9375 235.547 84.9375ZM234 43.3125C231.312 43.3125 229.125 44.2188 227.438 46.0312C225.781 47.8438 224.719 50.4375 224.25 53.8125H243.094V52.7344C243.031 49.7344 242.219 47.4219 240.656 45.7969C239.094 44.1406 236.875 43.3125 234 43.3125ZM293.531 84C292.906 82.7812 292.453 81.2656 292.172 79.4531C288.891 83.1094 284.625 84.9375 279.375 84.9375C274.406 84.9375 270.281 83.5 267 80.625C263.75 77.75 262.125 74.125 262.125 69.75C262.125 64.375 264.109 60.25 268.078 57.375C272.078 54.5 277.844 53.0469 285.375 53.0156H291.609V50.1094C291.609 47.7656 291 45.8906 289.781 44.4844C288.594 43.0781 286.703 42.375 284.109 42.375C281.828 42.375 280.031 42.9219 278.719 44.0156C277.438 45.1094 276.797 46.6094 276.797 48.5156H263.25C263.25 45.5781 264.156 42.8594 265.969 40.3594C267.781 37.8594 270.344 35.9062 273.656 34.5C276.969 33.0625 280.688 32.3438 284.812 32.3438C291.062 32.3438 296.016 33.9219 299.672 37.0781C303.359 40.2031 305.203 44.6094 305.203 50.2969V72.2812C305.234 77.0938 305.906 80.7344 307.219 83.2031V84H293.531ZM282.328 74.5781C284.328 74.5781 286.172 74.1406 287.859 73.2656C289.547 72.3594 290.797 71.1562 291.609 69.6562V60.9375H286.547C279.766 60.9375 276.156 63.2812 275.719 67.9688L275.672 68.7656C275.672 70.4531 276.266 71.8438 277.453 72.9375C278.641 74.0312 280.266 74.5781 282.328 74.5781ZM331.828 20.8125V33.2812H340.5V43.2188H331.828V68.5312C331.828 70.4062 332.188 71.75 332.906 72.5625C333.625 73.375 335 73.7812 337.031 73.7812C338.531 73.7812 339.859 73.6719 341.016 73.4531V83.7188C338.359 84.5312 335.625 84.9375 332.812 84.9375C323.312 84.9375 318.469 80.1406 318.281 70.5469V43.2188H310.875V33.2812H318.281V20.8125H331.828ZM344.531 58.1719C344.531 53.1406 345.5 48.6562 347.438 44.7188C349.375 40.7812 352.156 37.7344 355.781 35.5781C359.438 33.4219 363.672 32.3438 368.484 32.3438C375.328 32.3438 380.906 34.4375 385.219 38.625C389.562 42.8125 391.984 48.5 392.484 55.6875L392.578 59.1562C392.578 66.9375 390.406 73.1875 386.062 77.9062C381.719 82.5938 375.891 84.9375 368.578 84.9375C361.266 84.9375 355.422 82.5938 351.047 77.9062C346.703 73.2188 344.531 66.8438 344.531 58.7812V58.1719ZM358.078 59.1562C358.078 63.9688 358.984 67.6562 360.797 70.2188C362.609 72.75 365.203 74.0156 368.578 74.0156C371.859 74.0156 374.422 72.7656 376.266 70.2656C378.109 67.7344 379.031 63.7031 379.031 58.1719C379.031 53.4531 378.109 49.7969 376.266 47.2031C374.422 44.6094 371.828 43.3125 368.484 43.3125C365.172 43.3125 362.609 44.6094 360.797 47.2031C358.984 49.7656 358.078 53.75 358.078 59.1562ZM429.422 45.9844C427.578 45.7344 425.953 45.6094 424.547 45.6094C419.422 45.6094 416.062 47.3438 414.469 50.8125V84H400.922V33.2812H413.719L414.094 39.3281C416.812 34.6719 420.578 32.3438 425.391 32.3438C426.891 32.3438 428.297 32.5469 429.609 32.9531L429.422 45.9844ZM490.453 61.2656C489.922 68.6094 487.203 74.3906 482.297 78.6094C477.422 82.8281 470.984 84.9375 462.984 84.9375C454.234 84.9375 447.344 82 442.312 76.125C437.312 70.2188 434.812 62.125 434.812 51.8438V47.6719C434.812 41.1094 435.969 35.3281 438.281 30.3281C440.594 25.3281 443.891 21.5 448.172 18.8438C452.484 16.1563 457.484 14.8125 463.172 14.8125C471.047 14.8125 477.391 16.9219 482.203 21.1406C487.016 25.3594 489.797 31.2812 490.547 38.9062H476.484C476.141 34.5 474.906 31.3125 472.781 29.3438C470.688 27.3437 467.484 26.3438 463.172 26.3438C458.484 26.3438 454.969 28.0312 452.625 31.4062C450.312 34.75 449.125 39.9531 449.062 47.0156V52.1719C449.062 59.5469 450.172 64.9375 452.391 68.3438C454.641 71.75 458.172 73.4531 462.984 73.4531C467.328 73.4531 470.562 72.4688 472.688 70.5C474.844 68.5 476.078 65.4219 476.391 61.2656H490.453ZM496.688 58.1719C496.688 53.1406 497.656 48.6562 499.594 44.7188C501.531 40.7812 504.312 37.7344 507.938 35.5781C511.594 33.4219 515.828 32.3438 520.641 32.3438C527.484 32.3438 533.062 34.4375 537.375 38.625C541.719 42.8125 544.141 48.5 544.641 55.6875L544.734 59.1562C544.734 66.9375 542.562 73.1875 538.219 77.9062C533.875 82.5938 528.047 84.9375 520.734 84.9375C513.422 84.9375 507.578 82.5938 503.203 77.9062C498.859 73.2188 496.688 66.8438 496.688 58.7812V58.1719ZM510.234 59.1562C510.234 63.9688 511.141 67.6562 512.953 70.2188C514.766 72.75 517.359 74.0156 520.734 74.0156C524.016 74.0156 526.578 72.7656 528.422 70.2656C530.266 67.7344 531.188 63.7031 531.188 58.1719C531.188 53.4531 530.266 49.7969 528.422 47.2031C526.578 44.6094 523.984 43.3125 520.641 43.3125C517.328 43.3125 514.766 44.6094 512.953 47.2031C511.141 49.7656 510.234 53.75 510.234 59.1562ZM581.578 45.9844C579.734 45.7344 578.109 45.6094 576.703 45.6094C571.578 45.6094 568.219 47.3438 566.625 50.8125V84H553.078V33.2812H565.875L566.25 39.3281C568.969 34.6719 572.734 32.3438 577.547 32.3438C579.047 32.3438 580.453 32.5469 581.766 32.9531L581.578 45.9844ZM610.547 84.9375C603.109 84.9375 597.047 82.6562 592.359 78.0938C587.703 73.5312 585.375 67.4531 585.375 59.8594V58.5469C585.375 53.4531 586.359 48.9062 588.328 44.9062C590.297 40.875 593.078 37.7812 596.672 35.625C600.297 33.4375 604.422 32.3438 609.047 32.3438C615.984 32.3438 621.438 34.5312 625.406 38.9062C629.406 43.2812 631.406 49.4844 631.406 57.5156V63.0469H599.109C599.547 66.3594 600.859 69.0156 603.047 71.0156C605.266 73.0156 608.062 74.0156 611.438 74.0156C616.656 74.0156 620.734 72.125 623.672 68.3438L630.328 75.7969C628.297 78.6719 625.547 80.9219 622.078 82.5469C618.609 84.1406 614.766 84.9375 610.547 84.9375ZM609 43.3125C606.312 43.3125 604.125 44.2188 602.438 46.0312C600.781 47.8438 599.719 50.4375 599.25 53.8125H618.094V52.7344C618.031 49.7344 617.219 47.4219 615.656 45.7969C614.094 44.1406 611.875 43.3125 609 43.3125Z" fill="white"/>
</svg>
