<svg width="657" height="104" viewBox="0 0 657 104" fill="none" xmlns="http://www.w3.org/2000/svg">
<g filter="url(#filter0_d)">
<path d="M30.3869 30.3984H69.6016V69.6131L94 94.0116V6H5.98844L30.3869 30.3984ZM67.6131 71.6016H28.3984V32.3869L4 7.98844V96H92.0116L67.6131 71.6016Z" fill="#30ABFF"/>
</g>
<g filter="url(#filter1_d)">
<path d="M171.641 61.7812C170.953 69.0625 168.266 74.75 163.578 78.8438C158.891 82.9062 152.656 84.9375 144.875 84.9375C139.438 84.9375 134.641 83.6562 130.484 81.0938C126.359 78.5 123.172 74.8281 120.922 70.0781C118.672 65.3281 117.5 59.8125 117.406 53.5312V47.1562C117.406 40.7188 118.547 35.0469 120.828 30.1406C123.109 25.2344 126.375 21.4531 130.625 18.7969C134.906 16.1406 139.844 14.8125 145.438 14.8125C152.969 14.8125 159.031 16.8594 163.625 20.9531C168.219 25.0469 170.891 30.8281 171.641 38.2969H159.828C159.266 33.3906 157.828 29.8594 155.516 27.7031C153.234 25.5156 149.875 24.4219 145.438 24.4219C140.281 24.4219 136.312 26.3125 133.531 30.0938C130.781 33.8438 129.375 39.3594 129.312 46.6406V52.6875C129.312 60.0625 130.625 65.6875 133.25 69.5625C135.906 73.4375 139.781 75.375 144.875 75.375C149.531 75.375 153.031 74.3281 155.375 72.2344C157.719 70.1406 159.203 66.6562 159.828 61.7812H171.641ZM207.734 43.6875C206.234 43.4375 204.688 43.3125 203.094 43.3125C197.875 43.3125 194.359 45.3125 192.547 49.3125V84H181.156V33.2812H192.031L192.312 38.9531C195.062 34.5469 198.875 32.3438 203.75 32.3438C205.375 32.3438 206.719 32.5625 207.781 33L207.734 43.6875ZM236.328 84.9375C229.109 84.9375 223.25 82.6719 218.75 78.1406C214.281 73.5781 212.047 67.5156 212.047 59.9531V58.5469C212.047 53.4844 213.016 48.9688 214.953 45C216.922 41 219.672 37.8906 223.203 35.6719C226.734 33.4531 230.672 32.3438 235.016 32.3438C241.922 32.3438 247.25 34.5469 251 38.9531C254.781 43.3594 256.672 49.5938 256.672 57.6562V62.25H223.531C223.875 66.4375 225.266 69.75 227.703 72.1875C230.172 74.625 233.266 75.8438 236.984 75.8438C242.203 75.8438 246.453 73.7344 249.734 69.5156L255.875 75.375C253.844 78.4062 251.125 80.7656 247.719 82.4531C244.344 84.1094 240.547 84.9375 236.328 84.9375ZM234.969 41.4844C231.844 41.4844 229.312 42.5781 227.375 44.7656C225.469 46.9531 224.25 50 223.719 53.9062H245.422V53.0625C245.172 49.25 244.156 46.375 242.375 44.4375C240.594 42.4688 238.125 41.4844 234.969 41.4844ZM295.859 84C295.359 83.0312 294.922 81.4531 294.547 79.2656C290.922 83.0469 286.484 84.9375 281.234 84.9375C276.141 84.9375 271.984 83.4844 268.766 80.5781C265.547 77.6719 263.938 74.0781 263.938 69.7969C263.938 64.3906 265.938 60.25 269.938 57.375C273.969 54.4688 279.719 53.0156 287.188 53.0156H294.172V49.6875C294.172 47.0625 293.438 44.9688 291.969 43.4062C290.5 41.8125 288.266 41.0156 285.266 41.0156C282.672 41.0156 280.547 41.6719 278.891 42.9844C277.234 44.2656 276.406 45.9062 276.406 47.9062H265.016C265.016 45.125 265.938 42.5312 267.781 40.125C269.625 37.6875 272.125 35.7812 275.281 34.4062C278.469 33.0312 282.016 32.3438 285.922 32.3438C291.859 32.3438 296.594 33.8438 300.125 36.8438C303.656 39.8125 305.469 44 305.562 49.4062V72.2812C305.562 76.8438 306.203 80.4844 307.484 83.2031V84H295.859ZM283.344 75.7969C285.594 75.7969 287.703 75.25 289.672 74.1562C291.672 73.0625 293.172 71.5938 294.172 69.75V60.1875H288.031C283.812 60.1875 280.641 60.9219 278.516 62.3906C276.391 63.8594 275.328 65.9375 275.328 68.625C275.328 70.8125 276.047 72.5625 277.484 73.875C278.953 75.1562 280.906 75.7969 283.344 75.7969ZM331.766 20.9531V33.2812H340.719V41.7188H331.766V70.0312C331.766 71.9688 332.141 73.375 332.891 74.25C333.672 75.0938 335.047 75.5156 337.016 75.5156C338.328 75.5156 339.656 75.3594 341 75.0469V83.8594C338.406 84.5781 335.906 84.9375 333.5 84.9375C324.75 84.9375 320.375 80.1094 320.375 70.4531V41.7188H312.031V33.2812H320.375V20.9531H331.766ZM345.922 58.1719C345.922 53.2031 346.906 48.7344 348.875 44.7656C350.844 40.7656 353.609 37.7031 357.172 35.5781C360.734 33.4219 364.828 32.3438 369.453 32.3438C376.297 32.3438 381.844 34.5469 386.094 38.9531C390.375 43.3594 392.688 49.2031 393.031 56.4844L393.078 59.1562C393.078 64.1562 392.109 68.625 390.172 72.5625C388.266 76.5 385.516 79.5469 381.922 81.7031C378.359 83.8594 374.234 84.9375 369.547 84.9375C362.391 84.9375 356.656 82.5625 352.344 77.8125C348.062 73.0312 345.922 66.6719 345.922 58.7344V58.1719ZM357.312 59.1562C357.312 64.375 358.391 68.4688 360.547 71.4375C362.703 74.375 365.703 75.8438 369.547 75.8438C373.391 75.8438 376.375 74.3438 378.5 71.3438C380.656 68.3438 381.734 63.9531 381.734 58.1719C381.734 53.0469 380.625 48.9844 378.406 45.9844C376.219 42.9844 373.234 41.4844 369.453 41.4844C365.734 41.4844 362.781 42.9688 360.594 45.9375C358.406 48.875 357.312 53.2812 357.312 59.1562ZM429.266 43.6875C427.766 43.4375 426.219 43.3125 424.625 43.3125C419.406 43.3125 415.891 45.3125 414.078 49.3125V84H402.688V33.2812H413.562L413.844 38.9531C416.594 34.5469 420.406 32.3438 425.281 32.3438C426.906 32.3438 428.25 32.5625 429.312 33L429.266 43.6875ZM489.641 61.7812C488.953 69.0625 486.266 74.75 481.578 78.8438C476.891 82.9062 470.656 84.9375 462.875 84.9375C457.438 84.9375 452.641 83.6562 448.484 81.0938C444.359 78.5 441.172 74.8281 438.922 70.0781C436.672 65.3281 435.5 59.8125 435.406 53.5312V47.1562C435.406 40.7188 436.547 35.0469 438.828 30.1406C441.109 25.2344 444.375 21.4531 448.625 18.7969C452.906 16.1406 457.844 14.8125 463.438 14.8125C470.969 14.8125 477.031 16.8594 481.625 20.9531C486.219 25.0469 488.891 30.8281 489.641 38.2969H477.828C477.266 33.3906 475.828 29.8594 473.516 27.7031C471.234 25.5156 467.875 24.4219 463.438 24.4219C458.281 24.4219 454.312 26.3125 451.531 30.0938C448.781 33.8438 447.375 39.3594 447.312 46.6406V52.6875C447.312 60.0625 448.625 65.6875 451.25 69.5625C453.906 73.4375 457.781 75.375 462.875 75.375C467.531 75.375 471.031 74.3281 473.375 72.2344C475.719 70.1406 477.203 66.6562 477.828 61.7812H489.641ZM497.047 58.1719C497.047 53.2031 498.031 48.7344 500 44.7656C501.969 40.7656 504.734 37.7031 508.297 35.5781C511.859 33.4219 515.953 32.3438 520.578 32.3438C527.422 32.3438 532.969 34.5469 537.219 38.9531C541.5 43.3594 543.812 49.2031 544.156 56.4844L544.203 59.1562C544.203 64.1562 543.234 68.625 541.297 72.5625C539.391 76.5 536.641 79.5469 533.047 81.7031C529.484 83.8594 525.359 84.9375 520.672 84.9375C513.516 84.9375 507.781 82.5625 503.469 77.8125C499.188 73.0312 497.047 66.6719 497.047 58.7344V58.1719ZM508.438 59.1562C508.438 64.375 509.516 68.4688 511.672 71.4375C513.828 74.375 516.828 75.8438 520.672 75.8438C524.516 75.8438 527.5 74.3438 529.625 71.3438C531.781 68.3438 532.859 63.9531 532.859 58.1719C532.859 53.0469 531.75 48.9844 529.531 45.9844C527.344 42.9844 524.359 41.4844 520.578 41.4844C516.859 41.4844 513.906 42.9688 511.719 45.9375C509.531 48.875 508.438 53.2812 508.438 59.1562ZM580.391 43.6875C578.891 43.4375 577.344 43.3125 575.75 43.3125C570.531 43.3125 567.016 45.3125 565.203 49.3125V84H553.812V33.2812H564.688L564.969 38.9531C567.719 34.5469 571.531 32.3438 576.406 32.3438C578.031 32.3438 579.375 32.5625 580.438 33L580.391 43.6875ZM608.984 84.9375C601.766 84.9375 595.906 82.6719 591.406 78.1406C586.938 73.5781 584.703 67.5156 584.703 59.9531V58.5469C584.703 53.4844 585.672 48.9688 587.609 45C589.578 41 592.328 37.8906 595.859 35.6719C599.391 33.4531 603.328 32.3438 607.672 32.3438C614.578 32.3438 619.906 34.5469 623.656 38.9531C627.438 43.3594 629.328 49.5938 629.328 57.6562V62.25H596.188C596.531 66.4375 597.922 69.75 600.359 72.1875C602.828 74.625 605.922 75.8438 609.641 75.8438C614.859 75.8438 619.109 73.7344 622.391 69.5156L628.531 75.375C626.5 78.4062 623.781 80.7656 620.375 82.4531C617 84.1094 613.203 84.9375 608.984 84.9375ZM607.625 41.4844C604.5 41.4844 601.969 42.5781 600.031 44.7656C598.125 46.9531 596.906 50 596.375 53.9062H618.078V53.0625C617.828 49.25 616.812 46.375 615.031 44.4375C613.25 42.4688 610.781 41.4844 607.625 41.4844Z" fill="white"/>
</g>
<defs>
<filter id="filter0_d" x="0" y="6" width="98" height="98" filterUnits="userSpaceOnUse" color-interpolation-filters="sRGB">
<feFlood flood-opacity="0" result="BackgroundImageFix"/>
<feColorMatrix in="SourceAlpha" type="matrix" values="0 0 0 0 0 0 0 0 0 0 0 0 0 0 0 0 0 0 127 0"/>
<feOffset dy="4"/>
<feGaussianBlur stdDeviation="2"/>
<feColorMatrix type="matrix" values="0 0 0 0 0 0 0 0 0 0 0 0 0 0 0 0 0 0 0.15 0"/>
<feBlend mode="normal" in2="BackgroundImageFix" result="effect1_dropShadow"/>
<feBlend mode="normal" in="SourceGraphic" in2="effect1_dropShadow" result="shape"/>
</filter>
<filter id="filter1_d" x="113.406" y="14.8125" width="519.922" height="78.125" filterUnits="userSpaceOnUse" color-interpolation-filters="sRGB">
<feFlood flood-opacity="0" result="BackgroundImageFix"/>
<feColorMatrix in="SourceAlpha" type="matrix" values="0 0 0 0 0 0 0 0 0 0 0 0 0 0 0 0 0 0 127 0"/>
<feOffset dy="4"/>
<feGaussianBlur stdDeviation="2"/>
<feColorMatrix type="matrix" values="0 0 0 0 0 0 0 0 0 0 0 0 0 0 0 0 0 0 0.15 0"/>
<feBlend mode="normal" in2="BackgroundImageFix" result="effect1_dropShadow"/>
<feBlend mode="normal" in="SourceGraphic" in2="effect1_dropShadow" result="shape"/>
</filter>
</defs>
</svg>
